<svg version="1.1" xmlns="http://www.w3.org/2000/svg" xmlns:xlink="http://www.w3.org/1999/xlink" width="114.52628" height="154.53963" viewBox="0,0,114.52628,154.53963"><g transform="translate(-182.73686,-102.73019)"><g data-paper-data="{&quot;isPaintingLayer&quot;:true}" fill-rule="nonzero" stroke-linejoin="miter" stroke-miterlimit="10" stroke-dasharray="" stroke-dashoffset="0" style="mix-blend-mode: normal"><path d="M240.03213,137.43273c0,-0.1778 0.14589,-0.32199 0.32587,-0.32199l46.13247,-0.00776c0.07169,-0.00017 0.14027,0.02969 0.1895,0.08258c0.04922,0.05289 0.0747,0.12409 0.07042,0.19675c-0.18622,3.15773 -0.44742,6.34394 -0.7836,9.55856c-0.53145,5.11288 -0.84567,10.02409 -1.3461,15.0749c-0.25862,2.59654 -0.4862,5.04305 -0.68274,7.33962c-1.00086,11.6663 -2.06118,23.5563 -3.18102,35.67003c-0.34526,3.7474 -0.63233,7.54132 -1.00862,11.38183c-0.58447,5.96375 -1.15087,12.5844 -1.69912,19.86194c-0.02532,0.32827 -0.25316,0.60573 -0.57026,0.6944l-37.06269,10.36545c-0.08986,0.02544 -0.18643,0.00687 -0.26104,-0.05025c-0.07463,-0.05712 -0.1187,-0.14615 -0.11915,-0.24068z" fill="#f16528" stroke="#f16528" stroke-width="1" stroke-linecap="butt"/><path d="M287.40194,238.3756c-0.16813,1.93708 -0.34785,3.75257 -0.53923,5.44653c-0.03731,0.33194 -0.27261,0.60723 -0.59353,0.6944c-15.18869,4.20256 -30.43298,8.42323 -45.73287,12.66198c-0.44999,0.12671 -0.92069,0.12155 -1.41207,-0.01553c-12.97748,-3.62069 -24.5287,-6.82494 -34.65365,-9.61288c-3.59999,-0.99308 -7.24262,-2.01334 -10.92796,-3.06076c-0.23582,-0.0679 -0.40541,-0.27296 -0.42672,-0.51594c-1.05516,-12.43442 -2.14266,-24.88948 -3.26249,-37.36526c-2.10774,-23.45932 -4.21032,-47.05959 -6.30773,-70.80083c-0.23535,-2.65342 -0.50431,-5.2836 -0.80689,-7.89047c-0.00988,-0.08853 0.01825,-0.17708 0.07744,-0.24369c0.05919,-0.06657 0.14384,-0.10492 0.23292,-0.10545l113.93848,-0.00386c0.08118,-0.00002 0.15828,0.03578 0.21062,0.09785c0.05234,0.06209 0.07464,0.1441 0.06091,0.22414c-0.16813,1.02672 -0.30517,2.21507 -0.41121,3.56507c-0.29483,3.76551 -0.62068,7.61244 -0.9776,11.54085c-2.93015,32.29376 -5.75298,64.08836 -8.46848,95.38385zM240.09684,247.27873c0.07463,0.05712 0.1712,0.0757 0.26104,0.05025l37.06269,-10.36545c0.31709,-0.08869 0.54494,-0.36611 0.57026,-0.6944c0.54827,-7.27753 1.11464,-13.89817 1.69912,-19.86194c0.37629,-3.8405 0.66336,-7.63442 1.00862,-11.38183c1.11982,-12.11371 2.18016,-24.00374 3.18102,-35.67003c0.19656,-2.29653 0.42415,-4.74308 0.68274,-7.33962c0.50043,-5.05083 0.81465,-9.962 1.3461,-15.0749c0.33622,-3.21462 0.59741,-6.40083 0.7836,-9.55856c0.00428,-0.07264 -0.0212,-0.14382 -0.07042,-0.19675c-0.04922,-0.05289 -0.11781,-0.08277 -0.1895,-0.08258l-46.13245,0.00776c-0.17996,0 -0.27744,110.11089 -0.20284,110.16799z" fill="#ff8041" stroke="none" stroke-width="1" stroke-linecap="butt"/><path d="M240.06322,247.35811c-0.07461,-0.0571 0.02315,-110.32699 0.20311,-110.32699l46.19905,-0.00778c0.07169,-0.00019 0.14056,0.02981 0.18978,0.0827c0.04922,0.05293 0.07489,0.12419 0.07061,0.19683c-0.18619,3.15773 -0.44271,6.34609 -0.77893,9.56071c-0.53145,5.1129 -0.83456,10.03068 -1.33499,15.08151c-0.25859,2.59654 -0.47812,5.04949 -0.67468,7.34602c-1.00086,11.6663 -2.04941,23.67183 -3.16923,35.78555c-0.34526,3.74741 -0.65346,7.56157 -1.02975,11.40207c-0.58447,5.96376 -1.17192,12.59475 -1.72018,19.87229c-0.02532,0.32828 -0.2545,0.60614 -0.57159,0.69483l-37.12176,10.36274c-0.08984,0.02544 -0.18676,0.00673 -0.26138,-0.05039z" data-paper-data="{&quot;noHover&quot;:false,&quot;origItem&quot;:[&quot;Path&quot;,{&quot;applyMatrix&quot;:true,&quot;segments&quot;:[[[45.99282,96.53453],[0,0],[0.04326,0.03311]],[[46.14414,96.56366],[-0.05208,0.01475],[0,0]],[[67.62874,90.55499],[0,0],[0.18381,-0.05141]],[[67.95931,90.15246],[-0.01468,0.1903],[0.31782,-4.21866]],[[68.94426,78.63884],[-0.33881,3.45709],[0.21813,-2.22627]],[[69.52894,72.04099],[-0.20014,2.17231],[0.64914,-7.02211]],[[71.37292,51.36369],[-0.58018,6.76275],[0.11394,-1.33126]],[[71.76869,47.10904],[-0.1499,1.50517],[0.29009,-2.92788]],[[72.549,38.37038],[-0.30807,2.96386],[0.1949,-1.86346]],[[73.00324,32.82945],[-0.10793,1.83048],[0.00248,-0.04211]],[[72.96242,32.7154],[0.02853,0.03068],[-0.02853,-0.03066]],[[72.85257,32.66753],[0.04156,-0.00011],[0,0]],[[46.11039,32.67203],[0,0],[-0.10432,0]],[[45.99281,96.5345],[-0.04325,-0.0331],[0,0]]],&quot;closed&quot;:true,&quot;fillColor&quot;:[0,0,0,1]}]}" fill="#ff915a" stroke="none" stroke-width="0.5" stroke-linecap="butt"/><path d="M225.09501,120.04142h-7.58877c-0.30865,0 -0.53008,-0.06711 -0.66426,-0.20128c-0.13418,-0.13418 -0.20128,-0.35563 -0.20128,-0.66426v-2.81813c0,-0.29523 0.06711,-0.50995 0.20128,-0.64413c0.13418,-0.14762 0.35563,-0.22141 0.66426,-0.22141h6.4615c0.21472,0 0.36903,-0.06711 0.46298,-0.20128c0.10735,-0.13418 0.16102,-0.29523 0.16102,-0.48311c0,-0.28179 -0.05368,-0.48311 -0.16102,-0.60388c-0.09393,-0.13418 -0.24826,-0.20799 -0.46298,-0.22141l-3.60316,-0.50324c-1.12724,-0.16102 -2.03306,-0.53008 -2.71745,-1.10711c-0.67099,-0.57706 -1.00646,-1.53655 -1.00646,-2.87851v-2.5363c0,-1.35536 0.43614,-2.3954 1.30842,-3.12005c0.88569,-0.73808 2.10686,-1.10711 3.66354,-1.10711h6.7232c0.30865,0 0.53008,0.0738 0.66426,0.22141c0.13418,0.13418 0.20128,0.3489 0.20128,0.64413v2.85836c0,0.30865 -0.06711,0.53008 -0.20128,0.66426c-0.13418,0.13418 -0.35563,0.20128 -0.66426,0.20128h-5.59596c-0.20128,0 -0.36234,0.0738 -0.48311,0.22141c-0.10735,0.13418 -0.16102,0.30196 -0.16102,0.50324c0,0.21472 0.05368,0.39587 0.16102,0.54349c0.12077,0.13418 0.28179,0.20799 0.48311,0.22141l3.58303,0.48311c1.12724,0.16102 2.03306,0.53008 2.71745,1.10711c0.68439,0.57706 1.0266,1.53655 1.0266,2.87851v2.5363c0,1.35536 -0.44285,2.40209 -1.32852,3.14018c-0.88569,0.72467 -2.10017,1.08697 -3.64341,1.08697zM241.22173,120.04142h-3.88495c-0.30865,0 -0.53008,-0.06711 -0.66426,-0.20128c-0.13418,-0.13418 -0.20128,-0.35563 -0.20128,-0.66426v-3.07979l-3.68367,-4.9317c-0.36234,-0.49651 -0.60388,-0.92595 -0.72467,-1.28829c-0.12077,-0.37574 -0.18119,-0.92595 -0.18119,-1.65061v-4.62976c0,-0.29523 0.06711,-0.50995 0.20128,-0.64413c0.13418,-0.14762 0.35563,-0.22141 0.66426,-0.22141h3.7038c0.29523,0 0.50995,0.0738 0.64413,0.22141c0.14762,0.13418 0.22141,0.3489 0.22141,0.64413v3.94533c0,0.16102 0.00671,0.3288 0.02013,0.50324c0.0134,0.17446 0.0738,0.3422 0.18119,0.50324l1.10711,1.73112c0.08051,0.14762 0.16102,0.25498 0.24156,0.32207c0.09393,0.06711 0.20799,0.10064 0.3422,0.10064h0.24156c0.12077,0 0.22812,-0.03354 0.32207,-0.10064c0.09393,-0.06711 0.17446,-0.17446 0.24156,-0.32207l1.10711,-1.73112c0.12077,-0.16102 0.18788,-0.3288 0.20128,-0.50324c0.0134,-0.17446 0.02013,-0.3422 0.02013,-0.50324v-3.94533c0,-0.29523 0.06711,-0.50995 0.20128,-0.64413c0.13418,-0.14762 0.35563,-0.22141 0.66426,-0.22141h3.58303c0.30865,0 0.53008,0.0738 0.66426,0.22141c0.13418,0.13418 0.20128,0.3489 0.20128,0.64413v4.62976c0,0.72467 -0.06711,1.27485 -0.20128,1.65061c-0.12077,0.36234 -0.35563,0.79178 -0.70452,1.28829l-3.66354,4.95183v3.05966c0,0.30865 -0.06711,0.53008 -0.20128,0.66426c-0.13418,0.13418 -0.35563,0.20128 -0.66426,0.20128zM262.49383,120.04142h-12.23863c-0.29523,0 -0.51664,-0.06711 -0.66426,-0.20128c-0.13418,-0.13418 -0.20128,-0.35563 -0.20128,-0.66426v-15.58011c0,-0.29523 0.06711,-0.50995 0.20128,-0.64413c0.14762,-0.14762 0.36903,-0.22141 0.66426,-0.22141h3.72392c0.30865,0 0.53008,0.0738 0.66426,0.22141c0.13418,0.13418 0.20128,0.3489 0.20128,0.64413v11.89644h3.3012v-3.88495c0,-0.30865 0.06711,-0.53008 0.20128,-0.66426c0.13418,-0.13418 0.35563,-0.20128 0.66426,-0.20128h3.48235c0.30865,0 0.53008,0.06711 0.66426,0.20128c0.13418,0.13418 0.20128,0.35563 0.20128,0.66426v7.56862c0,0.30865 -0.06711,0.53008 -0.20128,0.66426c-0.13418,0.13418 -0.35563,0.20128 -0.66426,0.20128z" fill="#000000" stroke="none" stroke-width="1" stroke-linecap="square"/><g fill="#ffffff" stroke="none" stroke-width="0" stroke-linecap="butt"><g><path d="M205.47298,164.338v-16.92976h66.21345l-13.43463,16.92976z"/><g><path d="M205.473,234.22988l47.67724,-50.77897h18.53625l-41.04539,50.77897z"/><path d="M205.473,234.22988l16.14711,-16.92975h43.49835v16.92975z"/><path d="M253.55591,184.60428v-37.19602h18.13054v36.50401z"/><path d="M264.54178,234.22988v-16.92975h7.14467v16.92975z"/></g></g><path d="M205.47298,180.88623v-17.38879h16.29869v17.38879z"/></g><g stroke="none" stroke-width="0" stroke-linecap="butt"><g><path d="M205.47298,164.338v-16.92976h34.48316c-0.14784,0.44397 -0.12517,16.92976 -0.12517,16.92976z" fill="#d5d4d4"/><path d="" fill="#ffffff"/><g><path d="M205.473,234.22988l34.77667,-36.94333c0.00029,0.39591 -0.70376,18.74491 -0.66307,26.78719l-8.94553,10.15614z" fill="#d5d4d4"/><path d="" fill="#ffffff"/><path d="M205.473,234.22988l16.14711,-16.92975h17.75216c0.02194,5.64331 0.4202,11.28657 0.45885,16.92975z" fill="#d5d4d4"/><path d="M250.09919,217.30013h0.69233l-0.6959,0.9047c0.00122,-0.30158 0.00242,-0.60312 0.00359,-0.9047z" fill="#ffffff"/><path d="M271.24867,169.36713l0.14667,-0.20071l0.29111,-0.30377v0.9499l-0.17232,-0.22975z" fill="#ffffff"/><path d="" fill="#ffffff"/></g></g><path d="M205.47298,180.88623v-17.38879h16.29869v17.38879z" fill="#d5d4d4"/></g></g></g></svg>